--------------------------------------------

I.Give.It.a.Year.2013.R5.DVDRip.XVID.AC3.HQ.Hive-CM8

Source:

Russian DVD-9 Daju.god.2013.D.DVD

Encode:

quality of the dvd was ok, also came along with nice english studio audio
colours were as usual reddish, so tried to fix the colours to normal levels, looks better now
added sharpness and denoise
got very nice
enjoy

Video: 720x304 @bitrate 1600 2pass
Audio: English AC3 5.1 @448
Sample: yes included 
http://www.imdb.com/title/tt2244901/

General
Complete name: I.Give.It.a.Year.2013.R5.DVDRip.XVID.AC3.HQ.Hive-CM8.avi
Format: AVI
Format/Info: Audio Video Interleave
File size: 1.34 GiB
Duration: 1h 33mn
Overall bit rate: 2 057 Kbps
Writing application: Nandub v1.0rc2
Writing library: Nandub build 1853/release

Video
ID: 0
Format: MPEG-4 Visual
Format profile: Advanced Simple@L5
Format settings, BVOP: 2
Format settings, QPel: Yes
Format settings, GMC: No warppoints
Format settings, Matrix: Default (H.263)
Muxing mode: Packed bitstream
Codec ID: XVID
Codec ID/Hint: XviD
Duration: 1h 33mn
Bit rate: 1 599 Kbps
Width: 720 pixels
Height: 304 pixels
Display aspect ratio: 2.35:1
Frame rate: 25.000 fps
Color space: YUV
Chroma subsampling: 4:2:0
Bit depth: 8 bits
Scan type: Progressive
Compression mode: Lossy
Bits/(Pixel*Frame): 0.292
Stream size: 1.04 GiB (78%)
Writing library: XviD 1.2.1 (UTC 2008-12-04)

Audio
ID: 1
Format: AC-3
Format/Info: Audio Coding 3
Mode extension: CM (complete main)
Format settings, Endianness: Big
Codec ID: 2000
Duration: 1h 33mn
Bit rate mode: Constant
Bit rate: 448 Kbps
Channel(s): 6 channels
Channel positions: Front: L C R, Side: L R, LFE
Sampling rate: 48.0 KHz
Bit depth: 16 bits
Compression mode: Lossy
Stream size: 299 MiB (22%)
Alignment: Split accross interleaves
Interleave, duration: 40 ms (1.00 video frame)
Interleave, preload duration: 500 ms

Plot:

A look at the trials and tribulations of a newlywed couple during their first year of marriage

Cast:

Rose Byrne ... Nat
Minnie Driver ... Naomi
Simon Baker ... Guy
Rafe Spall ... Josh
Alex Macqueen ... Minister
Stephen Merchant ... Danny 

--------------------------------------------

More at   
http://publichash.com/

--------------------------------------------